<?xml version="1.0" encoding="UTF-8"?>
<svg version="1.1" xmlns="http://www.w3.org/2000/svg" width="61" height="56">
<path d="M0 0 C20.13 0 40.26 0 61 0 C61 18.48 61 36.96 61 56 C40.87 56 20.74 56 0 56 C0 37.52 0 19.04 0 0 Z " fill="#343434" transform="translate(0,0)"/>
<path d="M0 0 C0.99 0.33 1.98 0.66 3 1 C3 7.6 3 14.2 3 21 C9.6 21 16.2 21 23 21 C23 22.32 23 23.64 23 25 C16.4 25 9.8 25 3 25 C3 31.6 3 38.2 3 45 C1.68 45 0.36 45 -1 45 C-1 38.4 -1 31.8 -1 25 C-7.6 25 -14.2 25 -21 25 C-21 23.68 -21 22.36 -21 21 C-14.4 21 -7.8 21 -1 21 C-1.03958259 14.4629715 -1.03958259 14.4629715 -1.09008789 7.92602539 C-1.09258545 7.11641357 -1.09508301 6.30680176 -1.09765625 5.47265625 C-1.10551147 4.22367554 -1.10551147 4.22367554 -1.11352539 2.94946289 C-1 1 -1 1 0 0 Z " fill="#CDCDCD" transform="translate(26,5)"/>
</svg>
